/* XPM */
static char *_9c1bd3ffe204f89cf69837c190819baVlPu1iSeuL7Pa7aC[] = {
/* columns rows colors chars-per-pixel */
"24 24 82 1 ",
"  c #020102",
". c #0B0B06",
"X c #040509",
"o c #0D0D0A",
"O c #100F0C",
"+ c #0F110A",
"@ c #12120D",
"# c #141512",
"$ c #161814",
"% c #1A1A15",
"& c #1C1D1B",
"* c #201F1B",
"= c #22231D",
"- c #242423",
"; c #272A22",
": c #2B2C25",
"> c #2C2C2A",
", c #2D3126",
"< c #2E3129",
"1 c #313027",
"2 c #32332B",
"3 c #38372C",
"4 c #36392D",
"5 c #3A3D2E",
"6 c #343434",
"7 c #363932",
"8 c #3B3C33",
"9 c #373738",
"0 c #373839",
"q c #3B3B3B",
"w c #413E32",
"e c #3E4236",
"r c #3F4538",
"t c #454337",
"y c #43453B",
"u c #46493D",
"i c #4E4E39",
"p c #48483C",
"a c #4A493E",
"s c #494C3F",
"d c #4A4C3E",
"f c #4C4E3E",
"g c #50513A",
"h c #3E3E40",
"j c #3F3F40",
"k c #403F41",
"l c #404140",
"z c #414141",
"x c #434343",
"c c #444443",
"v c #434344",
"b c #444444",
"n c gray28",
"m c #474940",
"M c #464B41",
"N c #464C40",
"B c #494D42",
"V c #4D4F42",
"C c #494945",
"Z c #4B4E44",
"A c #4B4E46",
"S c #494949",
"D c gray29",
"F c #4D5043",
"G c #4F524A",
"H c #4D5448",
"J c #525046",
"K c #575547",
"L c #53544A",
"P c #52574B",
"I c #55544B",
"U c #54554C",
"Y c #535A4C",
"T c #58584B",
"R c #5A584B",
"E c #595B4E",
"W c #5C5C4F",
"Q c #565A51",
"! c #5A5E54",
"~ c #5B6050",
"^ c #5E6359",
"/ c #64645A",
/* pixels */
"zbz-qbb>6nk-qb6>bbq-bbk&",
"SSc>hSb>qSk>bSq>Sbq>SSv-",
"v66-hh6-qq>-v6-6z6>>z66&",
"q96&ht6-qb0-vq>6bq6-qq6%",
"zzq>->-#-;-%>-&&>-&-vhh=",
"bq6-@#o#$@o%#O@$o..>vh>-",
"bq6-%%#25;%==&;32%@>h06&",
"q66&&;%;#221=22#,%;9q06%",
"bbq-;;;e:=8878-<y=2szlh-",
"bq6-=2<>w JZyC e<:yQlq>-",
"bqq-;8udR2ACmZ2!frB/qq0-",
"q62&>8=taXJpmJ dy%mW06>%",
"zvh-;3%=u,FtdZ,s%odLhzq=",
"Sq9-;7%wYPffpmHY8+y~vq6-",
"v96-;8#tf4RLJK5ftXF/h96&",
"q96*<4tetiJLLJg8eet/066&",
"zzq->8%21 ZpFJ 2<@uWzzq-",
"nq6-:7<FW=FtZP&WZ;u!zq6-",
"v96-:7r8K;ZyfG=J8yy!q66&",
"q96&:4;47 mpyB 73;eHq06%",
"vzh-;:=4&:7227>&7=,yvhq-",
"bq6-%=&,;2,;=,2=<&=7v06=",
"bqq-%%@,3=#==$=2:$@>vh6=",
"q6>&#$oo@@@*%@#ooo#-0>-&"
};
