/* XPM */
static char *b1be55379806451bb543fb58d5576142owAT3mfKvry8ZCAo[] = {
/* columns rows colors chars-per-pixel */
"24 24 184 2 ",
"   c None",
".  c #BD0000",
"X  c #BD000A",
"o  c #AF1200",
"O  c #BE1401",
"+  c #A9001D",
"@  c #BB0019",
"#  c #A11F1F",
"$  c #BA151C",
"%  c #BD2C00",
"&  c #B73F00",
"*  c #A12213",
"=  c #BA261A",
"-  c #BE331E",
";  c #AB1E20",
":  c #9B2823",
">  c #A52B23",
",  c #B82B23",
"<  c #A8302B",
"1  c #BB3128",
"2  c #BA3532",
"3  c #C40000",
"4  c #CA0000",
"5  c #D70000",
"6  c #D8070C",
"7  c #C3001A",
"8  c #C80A18",
"9  c #DE0E18",
"0  c #F20000",
"q  c #FD0400",
"w  c #F71506",
"e  c #E51515",
"r  c #D02300",
"t  c #DA380D",
"y  c #C92C17",
"u  c #D32212",
"i  c #E1320D",
"p  c #FC350D",
"a  c #E13610",
"s  c #F6301F",
"d  c #EE112E",
"f  c #CF2120",
"g  c #D33627",
"h  c #BB570B",
"j  c #BF581B",
"k  c #B76200",
"l  c #BE4929",
"z  c #B94535",
"x  c #BE513E",
"c  c #BC603C",
"v  c #B57C39",
"b  c #D14200",
"n  c #C05F00",
"m  c #C7411D",
"M  c #C95C1C",
"N  c #C56702",
"B  c #D86F00",
"V  c #C87D07",
"C  c #C77B1D",
"Z  c #C2552A",
"A  c #D24D37",
"S  c #CC503F",
"D  c #E7592B",
"F  c #E54B3B",
"G  c #C77428",
"H  c #DA7430",
"J  c #BA4A48",
"K  c #C14D45",
"L  c #C07B48",
"P  c #C86B64",
"I  c #CC7778",
"U  c #B98814",
"Y  c #C78300",
"T  c #CE9F06",
"R  c #CF8A1A",
"E  c #CE9618",
"W  c #D39F1A",
"Q  c #CFA100",
"!  c #D3A400",
"~  c #D4AD00",
"^  c #D6B201",
"/  c #D8A814",
"(  c #C88727",
")  c #CB9125",
"_  c #D69F2B",
"`  c #C58A3C",
"'  c #D49A36",
"]  c #CFA12C",
"[  c #DABC2E",
"{  c #D6A934",
"}  c #DBB23C",
"|  c #E1C617",
" . c #DAC23B",
".. c #E3C739",
"X. c #CE8548",
"o. c #CD984E",
"O. c #C48A5D",
"+. c #D39F5C",
"@. c #CEA04B",
"#. c #D8A04C",
"$. c #DAB44B",
"%. c #D4A756",
"&. c #D9B85B",
"*. c #E8AC50",
"=. c #D18B69",
"-. c #C78074",
";. c #D09270",
":. c #D4A765",
">. c #DBB769",
",. c #D6A977",
"<. c #DBB577",
"1. c #E2B167",
"2. c #DAC25D",
"3. c #E6D15D",
"4. c #DDC16A",
"5. c #DDC562",
"6. c #DFC473",
"7. c #DFC970",
"8. c #DFC47B",
"9. c #E6C967",
"0. c #E3CC7C",
"q. c #E2CA7B",
"w. c #EBD27B",
"e. c #D3898C",
"r. c #CF8B92",
"t. c #D39798",
"y. c #D6A58E",
"u. c #D6A981",
"i. c #DBB986",
"p. c #D7A19B",
"a. c #D8A896",
"s. c #DBB696",
"d. c #E0BB88",
"f. c #D696A2",
"g. c #DCADA5",
"h. c #DFBAA5",
"j. c #DEB3B2",
"k. c #DFBBB7",
"l. c #E2ABB3",
"z. c #E1BFB5",
"x. c #E1BEBC",
"c. c #E9C28B",
"v. c #E6DA86",
"b. c #E7D788",
"n. c #F0D786",
"m. c #E6D493",
"M. c #E7DB9E",
"N. c #F5E488",
"B. c #EBE39A",
"V. c #E3C6A6",
"C. c #E5D2A1",
"Z. c #F1DAA8",
"A. c #E4C9B4",
"S. c #E3C3BE",
"D. c #EADCB3",
"F. c #EAD9BA",
"G. c #EBE1A5",
"H. c #E9E0AF",
"J. c #F1E6A3",
"K. c #ECE3B5",
"L. c #EDE1BB",
"P. c #F0E9BE",
"I. c #E8CAC4",
"U. c #E7CACE",
"Y. c #E3C2C1",
"T. c #E8D1D4",
"R. c #EEE6C2",
"E. c #F2EBC7",
"W. c #F1E7CE",
"Q. c #F2EBCD",
"!. c #FEEBC8",
"~. c #F3EBD7",
"^. c #F6F4D4",
"/. c #F5F2DC",
"(. c #F2E3E5",
"). c #F8EFE6",
"_. c #F5E9EA",
"`. c #F7F6E3",
"'. c #F8F5E5",
"]. c #FBFBEE",
"[. c #F7F0EB",
"{. c #FDFCF2",
"}. c #FEFDFD",
"|. c #FAF5F5",
/* pixels */
"                                                ",
"                K                               ",
"              N #.                              ",
"              / n.r.        8 f :               ",
"            N w.Z.9.! ^ } L d q >               ",
"            ( 3.H.R.E.R.J.9.F 0 1 +             ",
"          7 G | v.~./.].[.v.B g j l             ",
"          w y ( { ^ ^ ~ Q./.Y $ ) _             ",
"      # $ u 9 @ ( { %.a.S.[.y.< / ]             ",
"    * y K ` R $.B.`.Q.].U.I.T.h  .H 6 :         ",
"  Z z . r &.V.,.H.}.}.}.(._.x.Q 2.m e           ",
"    >.O.i.W.E.<.o.L.|.}.}._.A.K.M.' 4     1     ",
"    ! N.D.b.<.,.s.g.[.}.(.r.k.T.A.8.$.{ '       ",
"      ' b.V.a.b.B.~.}.k.` :.%.T Q Q ,.!.q.      ",
"      =.j.u.c.i.d.`.}.t.! B./.{.`.E.u.S A       ",
"      L.z.8.m.4.%.p.|.}.t.E 2.L.Q.C.@.b 0 ,     ",
"    R {.h.5.H.G.B.&.j.Y.y.j.k.@.[ } >.*.=       ",
"    X.d.X.9.G.8.8.w.F.t.C.>.I.s.U D 5 v z       ",
"          9.>.o I m.D.p.s.2...V X i 9           ",
"          C l r h P ;.L.~.h @...M 7 =           ",
"            @ s t 3 V.^.9.c X Z ) G             ",
"            > 1   J Z.n.k g i                   ",
"            *     I c.Y 7 p 7                   ",
"                  2       8                     "
};
