/* XPM */
static char *_ce0b0fa1c9d4257a8d34d635b19c5e4gJKX6LctP1Mxzauv[] = {
/* columns rows colors chars-per-pixel */
"24 24 84 1 ",
"  c #00090B",
". c #000A0C",
"X c #030D0F",
"o c #050F11",
"O c #061012",
"+ c #081214",
"@ c #0A1416",
"# c #0B1517",
"$ c #0C1618",
"% c #0D1719",
"& c #0E181A",
"* c #0F191B",
"= c #101A1C",
"- c #111B1D",
"; c #121C1E",
": c #131D1F",
"> c #141E20",
", c #151F21",
"< c #162022",
"1 c #172123",
"2 c #182224",
"3 c #192325",
"4 c #1A2426",
"5 c #1B2527",
"6 c #1C2628",
"7 c #1D2729",
"8 c #1E282A",
"9 c #1F292B",
"0 c #202A2C",
"q c #212B2D",
"w c #222C2E",
"e c #232D2F",
"r c #242E30",
"t c #252F31",
"y c #263032",
"u c #273133",
"i c #293335",
"p c #2A3436",
"a c #2B3537",
"s c #2C3638",
"d c #2D3739",
"f c #2E383A",
"g c #2F393B",
"h c #303A3C",
"j c #313B3D",
"k c #323C3E",
"l c #333D3F",
"z c #343E40",
"x c #353F41",
"c c #364042",
"v c #374143",
"b c #384244",
"n c #394345",
"m c #3A4446",
"M c #3B4547",
"N c #3C4648",
"B c #3D4749",
"V c #3E484A",
"C c #3F494B",
"Z c #404A4C",
"A c #414B4D",
"S c #424C4E",
"D c #434D4F",
"F c #444E50",
"G c #454F51",
"H c #465052",
"J c #475153",
"K c #485254",
"L c #495355",
"P c #4A5456",
"I c #4B5557",
"U c #4C5658",
"Y c #4D5759",
"T c #4E585A",
"R c #4F595B",
"E c #505A5C",
"W c #515B5D",
"Q c #525C5E",
"! c #535D5F",
"~ c #545E60",
"^ c #566062",
"/ c #576163",
"( c #596365",
") c #5A6466",
/* pixels */
"q#144*=669qqruipjairjs1*",
"6:6wcVZFPYTW!~^^!/)E!)z%",
":zTFKKSFZZSFFKKKcZJbB!Mo",
"3K^SFZMBBBBVZZSFSDKMlUF3",
"9PJlMZMFMMMBVBVVKJYFbJZ%",
"qWTZVBMYZZZZZZZZBbDJZEF#",
"u!PVSSSYSFSFSSSSBbBDZYJ=",
"rTFVZJVFVVBBBMBMZMBFMVV>",
"uYSFFZFFSFSSZZVVBBMJVMV4",
"uTSFSZSFFSSZZVZVZZBFZVZ3",
"uYSJFZSJSFSSZZVVZDVFZZZ1",
"uYZJSZFFFSSZZVZVVZMZMZZ=",
"uYSFSZFFSFSSZZVVMZzvzBMo",
"uYZJFZSJFSSZZVZVbZczzBM.",
"uYSJSZSJSFSSZZVVZJBzcFV.",
"uYSFFZSFFSSZZVZVDYZMMPFX",
"rWSBZFbZKPKKKSBzZJPBcPV*",
"p!JJTPBJBVZBBVFYZBZVVPcX",
"jKMbJFcZSZBBSJT~WPKSK^S%",
"bJMlZFBSPKY!~WKSSFSllYBo",
"cW!FPYKPFKPJZBMMBFKbcWZ+",
"3bWZVMzzjsiwrusjBVJPY~S>",
"O3s9q641>::34941w3qpisu#",
">%:O=11::>>>>=::3%*:+%41"
};
