/* XPM */
static char *_4f82e0b814a4002ce793cee84dd9486BXWKvr09U2zw2E8U[] = {
/* columns rows colors chars-per-pixel */
"24 24 80 1 ",
"  c #010100",
". c #080A06",
"X c #0D0D0B",
"o c #0F100D",
"O c #11120E",
"+ c #141412",
"@ c #181713",
"# c #1B1C17",
"$ c #1C1D1A",
"% c #1F201B",
"& c #21221E",
"* c #242423",
"= c #272824",
"- c #2A2A25",
"; c #2C2C2A",
": c #2F3029",
"> c #32332C",
", c #37392F",
"< c #343434",
"1 c #373930",
"2 c #393B32",
"3 c #393D31",
"4 c #3D3E33",
"5 c #3D3E35",
"6 c #3C3D36",
"7 c #3C3E36",
"8 c gray22",
"9 c #393939",
"0 c #3A3A3A",
"q c gray23",
"w c #3C3C3B",
"e c #3C3C3C",
"r c #3C3C3D",
"t c #3F3F3F",
"y c #3E4035",
"u c #3E4137",
"i c #3F4339",
"p c #414135",
"a c #414337",
"s c #424339",
"d c #444339",
"f c #42443A",
"g c #44443A",
"h c #45463B",
"j c #40403F",
"k c #42443C",
"l c #44453C",
"z c #44473D",
"x c #46473D",
"c c #46483E",
"v c #484A3B",
"b c #4A493E",
"n c gray25",
"m c #414141",
"M c gray26",
"N c #434343",
"B c #444444",
"V c #454544",
"C c #444545",
"Z c #464646",
"A c #474A41",
"S c #484C41",
"D c #4C4C41",
"F c #494D45",
"G c #4A4E46",
"H c #4C4F44",
"J c #494949",
"K c gray29",
"L c #4F5044",
"P c #4E5048",
"I c #515046",
"U c #515146",
"Y c #54544A",
"T c #55564A",
"R c #57574D",
"E c #57584A",
"W c #565850",
"Q c #5C5D51",
"! c #636355",
"~ c #6A6A5E",
/* pixels */
"mBm*wBB;<Br*nZ<;ZZe*Bmn%",
"JJB-mJB;rKi;NZ<>KBe;JJN*",
"B<<*rr>*rw;*m<*<n<;;n<<%",
"r<<$jm8=rm<;Cr;<me<*e<<#",
"Bmr**-*+**$+**$$;*$*Bmw$",
"Br<*+              ;B8<*",
"B8<*$X             ;m8<$",
"r<<*-X             >w8<$",
"Zir-3O            .iBjr*",
"Zw<-S+            .GB8>&",
"Cq8*AO             GB88&",
"q<;&g+.XX+X+oX+XO.Obw<;$",
"nnq*p&&%%%#%$$%$&$#cNm8&",
"Zn<;c&%%#%#&&$&#&&&LBr<*",
"Cq<*T-&:&&&&-&====&RB<<$",
"q<<*E:-&-::&-&==-;&Wj<<#",
"mmr;j>->=>>->-;-:>-UBm8*",
"Zr<*r1>,>:1>,,1>:2>PBe<&",
"Nq<*g,1511ki1,512g,LB<<$",
"q<<*i545i5pyyy554a3cw<<$",
"NBr;>5ggggzy7gggacw1Bme*",
"B<<;&pcyczLkkcpcgUg<B8<&",
"Br8*+URDTbTLYLLRbRZ*B8<*",
"<<-$XQ!!!Y!~!!!!T!Q$8>*#"
};
