/* XPM */
static char *_d16188475f0405f86e3a1c1b6589b8dqBtcYsJCZa9xuFJQ[] = {
/* columns rows colors chars-per-pixel */
"48 48 151 2 ",
"   c None",
".  c #020202",
"X  c #0A0503",
"o  c #0D0906",
"O  c #040A0A",
"+  c #0D0C0C",
"@  c #130100",
"#  c #1A0303",
"$  c #120A06",
"%  c #120D0A",
"&  c #1B0E0C",
"*  c #16110D",
"=  c #1B130D",
"-  c #001111",
";  c #0D1916",
":  c #001919",
">  c #0A1B1B",
",  c #141313",
"<  c #1C1612",
"1  c #1D1915",
"2  c #141618",
"3  c #171818",
"4  c #1D1C1C",
"5  c #230000",
"6  c #2B0000",
"7  c #320000",
"8  c #3A0202",
"9  c #21160E",
"0  c #24180F",
"q  c #211611",
"w  c #241A13",
"e  c #2A1D15",
"r  c #231D1A",
"t  c #2C1C1A",
"y  c #341614",
"u  c #301F15",
"i  c #1C201D",
"p  c #2E2017",
"a  c #25211D",
"s  c #2A221C",
"d  c #312117",
"f  c #33241A",
"g  c #38271C",
"h  c #3A291D",
"j  c #002929",
"k  c #1C2222",
"l  c #232424",
"z  c #2B2522",
"x  c #2E2925",
"c  c #272728",
"v  c #272828",
"b  c #2D2D2D",
"n  c #2A2A2A",
"m  c #302925",
"M  c #302A25",
"N  c #302A26",
"B  c #302A27",
"V  c #302B27",
"C  c #312B27",
"Z  c #322B27",
"A  c #322C27",
"S  c #332C27",
"D  c #312B26",
"F  c #322C28",
"G  c #332C28",
"H  c #332D28",
"J  c #322D29",
"K  c #332D29",
"L  c #342D28",
"P  c #342E29",
"I  c #352E29",
"U  c #342E2A",
"Y  c #352E2A",
"T  c #352F2A",
"R  c #352F2B",
"E  c #362F2A",
"W  c #342D29",
"Q  c #36302B",
"!  c #37302B",
"~  c #37302C",
"^  c #37302B",
"/  c #38312B",
"(  c #38312C",
")  c #39312C",
"_  c #38312D",
"`  c #39322C",
"'  c #38322D",
"]  c #39322D",
"[  c #3A322D",
"{  c #3A332D",
"}  c #3A332E",
"|  c #3B342F",
" . c #3C342F",
".. c #3C352F",
"X. c #39322D",
"o. c gray19",
"O. c #323232",
"+. c #353535",
"@. c gray21",
"#. c #343434",
"$. c #3C3530",
"%. c #383535",
"&. c #3A3533",
"*. c #373838",
"=. c gray22",
"-. c #393838",
";. c #393939",
":. c #3A3939",
">. c #3A3A3A",
",. c #3A3B3B",
"<. c #393C3C",
"1. c #3A3D3D",
"2. c #3C3C3C",
"3. c gray24",
"4. c #3E3E3E",
"5. c #3F3F3F",
"6. c #3B3C3C",
"7. c #420000",
"8. c #430000",
"9. c #4A0000",
"0. c #4B0808",
"q. c #540101",
"w. c #540101",
"e. c #670101",
"r. c #680201",
"t. c #6C0000",
"y. c #6D0101",
"u. c #6E0000",
"i. c #730000",
"p. c #760000",
"a. c #770303",
"s. c #750101",
"d. c #780000",
"f. c #780302",
"g. c gray25",
"h. c #414141",
"j. c #424040",
"k. c #434141",
"l. c #414242",
"z. c gray26",
"x. c #434343",
"c. c #444343",
"v. c #424141",
"b. c #870000",
"n. c #850000",
"m. c #880000",
"M. c #9E0505",
"N. c #9E0505",
"B. c #A80000",
"V. c #B30505",
"C. c #B30505",
/* pixels */
"                  + 4 l l 4                                         4 l l 4                     ",
"              . 4 O.3.3.l.3.b ,                                 , x *.3.3.@.c ,                 ",
"              , O.l.l.l.>.<.x.:.,                               l 3.c.g.l.l.3.l                 ",
"            , c >.c.<.4 # . z 3.6.,                           + @.c.4.g.3.l.l.%.+               ",
"          + n *.l.3.t . . X . O %.c                           l 3.l.4.g.l.3.l.3.l               ",
"        , b 3.l.l.k . V.t.. N.a.: r                         , c #.g.l.g.g.g.l.@.c ,             ",
"      + 4 +.l.5.b . . e.w.. a.7.- a .                     + l v c b >.3.3.>.o.c n l +           ",
"      . 3 l n c , . # i.a.b.t.7 . r 3                     , , k c c c b b c z c 4 , 4           ",
"      , I r r a a z i r y y 1 4 s r ,                   X Z I a r z l l r k l r s z Q z ,       ",
"  * s r r 4 Q z Q ' L x b x S Z z I , .             = q e w ' ' S m Z Z Z I ' / $.a * p s a     ",
". , z s 3 r J z r z ' s s / ' a 1 Q z 0 *           w d f r ' Z = , G { ' ~ I ' { Q = g w e q   ",
"  o d w o r a z . 1 J 1 1 L ' I Z ' Z w f %         = g h q I ' Z I ' ' Z 1 r I { { z p h d =   ",
"  w h f o , $.z = w S I I ' ' Z % Z / 1 g f X         % 9 . z z J { ' ' z = z ' J / a X p =     ",
"  . d g $ * r % q 3 J { ' ' / r 1 . s z & 1 4             . o 1 ~ Z J ' / L ' ' z , +           ",
"    X , 3 l . o e w S Q I $.S o a $   z r 3 n 4           = 1 L I $ s S I ' I $.a .             ",
"        c v k $ g = I S q x r 9 < a X   1 3 l 4           1 q x Q z z a ' Z , J q .             ",
"        4 c , w $ 3 { { z * d h 9 o %     + ,             q = 3 ' L * 1 I I * o a <             ",
"        +   . h e z E s w f h h 0                       % , = 9 z * s s , S a q w p *           ",
"            q f % r e d h h h h w                       o X f g p w * q = = = 1 X * <           ",
"          . g h d f h S d = p h *                           e p h h f 9 e f f p                 ",
"        . e w w w , e e f . q h o                           % . = g g w f h h w                 ",
"        o %   * X w = . t g h w                             p = . 9 1 . e w h f                 ",
"              q d *     . d d .                           $ =       = t = + d e =               ",
"            . %           . .                                       X X     .   o               ",
"                    4 l l 4 +                                       4 c c 4                     ",
"                , b 3.l.g.3.O.4 .                               + b @.#.#.+.b +                 ",
"              , :.c.3.%.l.l.l.O.,                               l *.w . . w *.l                 ",
"            , 3.4.z . X k 6.c.>.c 3                           + o.c . . . . c o.+               ",
"            l %.O . . . . t <.l.@.c +                         z j 0.B.8 8 B.0.j z               ",
"            r : f.N.. t.C.. k c.l.3.b ,                     , J > 5 a.6 6 s.5 > J ,             ",
"          . z - 8.f.. w.t.. . b g.3.@.4 o                 % k z . 9.t.b.b.t.9.. z l +           ",
"          3 r . 6 t.b.a.i.# . , c c l 4 .               X 2 2 1 r ; < 6 6 & ; r 1 , 4 r         ",
"          , 4 s 4 q y y r i s z a 4 r Q ,             % w s Q I x Z z i a x x x x Q { { a       ",
"        . 1 I z Z L n x S Q ' J z Q r r r a *         o f w ' z a Q Q I / L z ' z J J 4 z a .   ",
"      % 0 z Q 1 a / { s s { z r s J a 1 s z , .       e p a { x r S ' ' Q 1 * Z / S ~ w @       ",
"    % g w x { x L { L 1 1 S 4 . z a 4 O e d o         d q Q ~ w x  .Q / / x z ' z X z ~ 1       ",
"  . f g 1 E x + Z ' ' I L S 1 1 z { , o p h q         % a x 1 1 1 L { { { ' { a 1 w $ s a       ",
"  4 1 = x t X q r ' / { { S = 1 * r * $ h f .         % t = < f 1 r { z L ' 1 1 M = f g $       ",
"4 c , r z   + w o Z $.J Q S w e o . l 3 , X           . f h * = 9 1 4 q L z X p w = g f .       ",
"k c 3 1   X p 1 9 r x q Z J 9 g $ 4 v c                 = w 3 = p a o / I 9 p % w 4 1 $         ",
"  , o     % o 9 h d = z '  ., $ w , l i                   l l = * q e a a e d e d v l           ",
"              q h h f w r ~ z e h .   +                   4 s g w f h = q h * % f 1 4           ",
"              w g h h h d p r , f w                       . w < f h g h h h f d e               ",
"              = h d = p h g f p h f o                     o * o p f t . p p f h =               ",
"              + h q . f e w = w w w p .                   q h s o . p * * o w h X               ",
"                w h f p . = q + *   % X                 % d q X     e g %   $ h p               ",
"                . d f .     * d q                       % .         = *       % w o             ",
"                  . .           + X                                                             "
};
